<svg style="position: absolute; width: 0; height: 0;" width="0" height="0" version="1.1" xmlns="http://www.w3.org/2000/svg" xmlns:xlink="http://www.w3.org/1999/xlink">
<defs>
<symbol id="icon-search" viewBox="0 0 950.8563512165565 1024">
<title>search</title>
<path class="path1" d="M658.286 475.429q0-105.714-75.143-180.857t-180.857-75.143-180.857 75.143-75.143 180.857 75.143 180.857 180.857 75.143 180.857-75.143 75.143-180.857zM950.857 950.857q0 29.714-21.714 51.429t-51.429 21.714q-30.857 0-51.429-21.714l-196-195.429q-102.286 70.857-228 70.857-81.714 0-156.286-31.714t-128.571-85.714-85.714-128.571-31.714-156.286 31.714-156.286 85.714-128.571 128.571-85.714 156.286-31.714 156.286 31.714 128.571 85.714 85.714 128.571 31.714 156.286q0 125.714-70.857 228l196 196q21.143 21.143 21.143 51.429z"></path>
</symbol>
<symbol id="icon-user" viewBox="0 0 804.5710016886405 1024">
<title>user</title>
<path class="path1" d="M804.571 802.857q0 68.571-41.714 108.286t-110.857 39.714h-499.429q-69.143 0-110.857-39.714t-41.714-108.286q0-30.286 2-59.143t8-62.286 15.143-62 24.571-55.714 35.429-46.286 48.857-30.571 63.714-11.429q5.143 0 24 12.286t42.571 27.429 61.714 27.429 76.286 12.286 76.286-12.286 61.714-27.429 42.571-27.429 24-12.286q34.857 0 63.714 11.429t48.857 30.571 35.429 46.286 24.571 55.714 15.143 62 8 62.286 2 59.143zM621.714 292.571q0 90.857-64.286 155.143t-155.143 64.286-155.143-64.286-64.286-155.143 64.286-155.143 155.143-64.286 155.143 64.286 64.286 155.143z"></path>
</symbol>
<symbol id="icon-check" viewBox="0 0 1024.0000610351562 1024">
<title>check</title>
<path class="path1" d="M954.857 323.429q0 22.857-16 38.857l-491.429 491.429q-16 16-38.857 16t-38.857-16l-284.571-284.571q-16-16-16-38.857t16-38.857l77.714-77.714q16-16 38.857-16t38.857 16l168 168.571 374.857-375.429q16-16 38.857-16t38.857 16l77.714 77.714q16 16 16 38.857z"></path>
</symbol>
<symbol id="icon-close" viewBox="0 0 804.5720672607422 1024">
<title>close</title>
<path class="path1" d="M741.714 755.429q0 22.857-16 38.857l-77.714 77.714q-16 16-38.857 16t-38.857-16l-168-168-168 168q-16 16-38.857 16t-38.857-16l-77.714-77.714q-16-16-16-38.857t16-38.857l168-168-168-168q-16-16-16-38.857t16-38.857l77.714-77.714q16-16 38.857-16t38.857 16l168 168 168-168q16-16 38.857-16t38.857 16l77.714 77.714q16 16 16 38.857t-16 38.857l-168 168 168 168q16 16 16 38.857z"></path>
</symbol>
<symbol id="icon-cog" viewBox="0 0 877.7160930633545 1024">
<title>cog</title>
<path class="path1" d="M585.143 512q0-60.571-42.857-103.429t-103.429-42.857-103.429 42.857-42.857 103.429 42.857 103.429 103.429 42.857 103.429-42.857 42.857-103.429zM877.714 449.714v126.857q0 6.857-4.571 13.143t-11.429 7.429l-105.714 16q-10.857 30.857-22.286 52 20 28.571 61.143 78.857 5.714 6.857 5.714 14.286t-5.143 13.143q-15.429 21.143-56.571 61.714t-53.714 40.571q-6.857 0-14.857-5.143l-78.857-61.714q-25.143 13.143-52 21.714-9.143 77.714-16.571 106.286-4 16-20.571 16h-126.857q-8 0-14-4.857t-6.571-12.286l-16-105.143q-28-9.143-51.429-21.143l-80.571 61.143q-5.714 5.143-14.286 5.143-8 0-14.286-6.286-72-65.143-94.286-96-4-5.714-4-13.143 0-6.857 4.571-13.143 8.571-12 29.143-38t30.857-40.286q-15.429-28.571-23.429-56.571l-104.571-15.429q-7.429-1.143-12-7.143t-4.571-13.429v-126.857q0-6.857 4.571-13.143t10.857-7.429l106.286-16q8-26.286 22.286-52.571-22.857-32.571-61.143-78.857-5.714-6.857-5.714-13.714 0-5.714 5.143-13.143 14.857-20.571 56.286-61.429t54-40.857q7.429 0 14.857 5.714l78.857 61.143q25.143-13.143 52-21.714 9.143-77.714 16.571-106.286 4-16 20.571-16h126.857q8 0 14 4.857t6.571 12.286l16 105.143q28 9.143 51.429 21.143l81.143-61.143q5.143-5.143 13.714-5.143 7.429 0 14.286 5.714 73.714 68 94.286 97.143 4 4.571 4 12.571 0 6.857-4.571 13.143-8.571 12-29.143 38t-30.857 40.286q14.857 28.571 23.429 56l104.571 16q7.429 1.143 12 7.143t4.571 13.429z"></path>
</symbol>
<symbol id="icon-trash-o" viewBox="0 0 804.5710134506226 1024">
<title>trash-o</title>
<path class="path1" d="M292.571 420.571v329.143q0 8-5.143 13.143t-13.143 5.143h-36.571q-8 0-13.143-5.143t-5.143-13.143v-329.143q0-8 5.143-13.143t13.143-5.143h36.571q8 0 13.143 5.143t5.143 13.143zM438.857 420.571v329.143q0 8-5.143 13.143t-13.143 5.143h-36.571q-8 0-13.143-5.143t-5.143-13.143v-329.143q0-8 5.143-13.143t13.143-5.143h36.571q8 0 13.143 5.143t5.143 13.143zM585.143 420.571v329.143q0 8-5.143 13.143t-13.143 5.143h-36.571q-8 0-13.143-5.143t-5.143-13.143v-329.143q0-8 5.143-13.143t13.143-5.143h36.571q8 0 13.143 5.143t5.143 13.143zM658.286 834.286v-541.714h-512v541.714q0 12.571 4 23.143t8.286 15.429 6 4.857h475.429q1.714 0 6-4.857t8.286-15.429 4-23.143zM274.286 219.429h256l-27.429-66.857q-4-5.143-9.714-6.286h-181.143q-5.714 1.143-9.714 6.286zM804.571 237.714v36.571q0 8-5.143 13.143t-13.143 5.143h-54.857v541.714q0 47.429-26.857 82t-64.571 34.571h-475.429q-37.714 0-64.571-33.429t-26.857-80.857v-544h-54.857q-8 0-13.143-5.143t-5.143-13.143v-36.571q0-8 5.143-13.143t13.143-5.143h176.571l40-95.429q8.571-21.143 30.857-36t45.143-14.857h182.857q22.857 0 45.143 14.857t30.857 36l40 95.429h176.571q8 0 13.143 5.143t5.143 13.143z"></path>
</symbol>
<symbol id="icon-home" viewBox="0 0 950.8578853607178 1024">
<title>home</title>
<path class="path1" d="M804.571 566.857v274.286q0 14.857-10.857 25.714t-25.714 10.857h-219.429v-219.429h-146.286v219.429h-219.429q-14.857 0-25.714-10.857t-10.857-25.714v-274.286q0-0.571 0.286-1.714t0.286-1.714l328.571-270.857 328.571 270.857q0.571 1.143 0.571 3.429zM932 527.429l-35.429 42.286q-4.571 5.143-12 6.286h-1.714q-7.429 0-12-4l-395.429-329.714-395.429 329.714q-6.857 4.571-13.714 4-7.429-1.143-12-6.286l-35.429-42.286q-4.571-5.714-4-13.429t6.286-12.286l410.857-342.286q18.286-14.857 43.429-14.857t43.429 14.857l139.429 116.571v-111.429q0-8 5.143-13.143t13.143-5.143h109.714q8 0 13.143 5.143t5.143 13.143v233.143l125.143 104q5.714 4.571 6.286 12.286t-4 13.429z"></path>
</symbol>
<symbol id="icon-chevron-left" viewBox="0 0 768.0010223388672 1024">
<title>chevron-left</title>
<path class="path1" d="M669.143 172l-303.429 303.429 303.429 303.429q10.857 10.857 10.857 25.714t-10.857 25.714l-94.857 94.857q-10.857 10.857-25.714 10.857t-25.714-10.857l-424-424q-10.857-10.857-10.857-25.714t10.857-25.714l424-424q10.857-10.857 25.714-10.857t25.714 10.857l94.857 94.857q10.857 10.857 10.857 25.714t-10.857 25.714z"></path>
</symbol>
<symbol id="icon-chevron-right" viewBox="0 0 694.8569641113281 1024">
<title>chevron-right</title>
<path class="path1" d="M632.571 501.143l-424 424q-10.857 10.857-25.714 10.857t-25.714-10.857l-94.857-94.857q-10.857-10.857-10.857-25.714t10.857-25.714l303.429-303.429-303.429-303.429q-10.857-10.857-10.857-25.714t10.857-25.714l94.857-94.857q10.857-10.857 25.714-10.857t25.714 10.857l424 424q10.857 10.857 10.857 25.714t-10.857 25.714z"></path>
</symbol>
<symbol id="icon-plus-circle" viewBox="0 0 877.7140070597306 1024">
<title>plus-circle</title>
<path class="path1" d="M694.857 548.571v-73.143q0-14.857-10.857-25.714t-25.714-10.857h-146.286v-146.286q0-14.857-10.857-25.714t-25.714-10.857h-73.143q-14.857 0-25.714 10.857t-10.857 25.714v146.286h-146.286q-14.857 0-25.714 10.857t-10.857 25.714v73.143q0 14.857 10.857 25.714t25.714 10.857h146.286v146.286q0 14.857 10.857 25.714t25.714 10.857h73.143q14.857 0 25.714-10.857t10.857-25.714v-146.286h146.286q14.857 0 25.714-10.857t10.857-25.714zM877.714 512q0 119.429-58.857 220.286t-159.714 159.714-220.286 58.857-220.286-58.857-159.714-159.714-58.857-220.286 58.857-220.286 159.714-159.714 220.286-58.857 220.286 58.857 159.714 159.714 58.857 220.286z"></path>
</symbol>
<symbol id="icon-minus-circle" viewBox="0 0 877.7140070597306 1024">
<title>minus-circle</title>
<path class="path1" d="M694.857 548.571v-73.143q0-14.857-10.857-25.714t-25.714-10.857h-438.857q-14.857 0-25.714 10.857t-10.857 25.714v73.143q0 14.857 10.857 25.714t25.714 10.857h438.857q14.857 0 25.714-10.857t10.857-25.714zM877.714 512q0 119.429-58.857 220.286t-159.714 159.714-220.286 58.857-220.286-58.857-159.714-159.714-58.857-220.286 58.857-220.286 159.714-159.714 220.286-58.857 220.286 58.857 159.714 159.714 58.857 220.286z"></path>
</symbol>
<symbol id="icon-times-circle" viewBox="0 0 877.7140070597306 1024">
<title>times-circle</title>
<path class="path1" d="M656.571 641.143q0-14.857-10.857-25.714l-103.429-103.429 103.429-103.429q10.857-10.857 10.857-25.714 0-15.429-10.857-26.286l-51.429-51.429q-10.857-10.857-26.286-10.857-14.857 0-25.714 10.857l-103.429 103.429-103.429-103.429q-10.857-10.857-25.714-10.857-15.429 0-26.286 10.857l-51.429 51.429q-10.857 10.857-10.857 26.286 0 14.857 10.857 25.714l103.429 103.429-103.429 103.429q-10.857 10.857-10.857 25.714 0 15.429 10.857 26.286l51.429 51.429q10.857 10.857 26.286 10.857 14.857 0 25.714-10.857l103.429-103.429 103.429 103.429q10.857 10.857 25.714 10.857 15.429 0 26.286-10.857l51.429-51.429q10.857-10.857 10.857-26.286zM877.714 512q0 119.429-58.857 220.286t-159.714 159.714-220.286 58.857-220.286-58.857-159.714-159.714-58.857-220.286 58.857-220.286 159.714-159.714 220.286-58.857 220.286 58.857 159.714 159.714 58.857 220.286z"></path>
</symbol>
<symbol id="icon-check-circle" viewBox="0 0 877.7140070597306 1024">
<title>check-circle</title>
<path class="path1" d="M733.714 419.429q0-16-10.286-26.286l-52-51.429q-10.857-10.857-25.714-10.857t-25.714 10.857l-233.143 232.571-129.143-129.143q-10.857-10.857-25.714-10.857t-25.714 10.857l-52 51.429q-10.286 10.286-10.286 26.286 0 15.429 10.286 25.714l206.857 206.857q10.857 10.857 25.714 10.857 15.429 0 26.286-10.857l310.286-310.286q10.286-10.286 10.286-25.714zM877.714 512q0 119.429-58.857 220.286t-159.714 159.714-220.286 58.857-220.286-58.857-159.714-159.714-58.857-220.286 58.857-220.286 159.714-159.714 220.286-58.857 220.286 58.857 159.714 159.714 58.857 220.286z"></path>
</symbol>
<symbol id="icon-arrow-left" viewBox="0 0 914.2857208251953 1024">
<title>arrow-left</title>
<path class="path1" d="M877.714 512v73.143q0 30.286-18.571 51.714t-48.286 21.429h-402.286l167.429 168q21.714 20.571 21.714 51.429t-21.714 51.429l-42.857 43.429q-21.143 21.143-51.429 21.143-29.714 0-52-21.143l-372-372.571q-21.143-21.143-21.143-51.429 0-29.714 21.143-52l372-371.429q21.714-21.714 52-21.714 29.714 0 51.429 21.714l42.857 42.286q21.714 21.714 21.714 52t-21.714 52l-167.429 167.429h402.286q29.714 0 48.286 21.429t18.571 51.714z"></path>
</symbol>
<symbol id="icon-arrow-right" viewBox="0 0 841.1423365274677 1024">
<title>arrow-right</title>
<path class="path1" d="M841.143 548.571q0 30.857-21.143 52l-372 372q-22.286 21.143-52 21.143-29.143 0-51.429-21.143l-42.857-42.857q-21.714-21.714-21.714-52t21.714-52l167.429-167.429h-402.286q-29.714 0-48.286-21.429t-18.571-51.714v-73.143q0-30.286 18.571-51.714t48.286-21.429h402.286l-167.429-168q-21.714-20.571-21.714-51.429t21.714-51.429l42.857-42.857q21.714-21.714 51.429-21.714 30.286 0 52 21.714l372 372q21.143 20 21.143 51.429z"></path>
</symbol>
<symbol id="icon-mail-forward" viewBox="0 0 1024.0032653808594 1024">
<title>mail-forward</title>
<path class="path1" d="M1024 365.714q0 14.857-10.857 25.714l-292.571 292.571q-10.857 10.857-25.714 10.857t-25.714-10.857-10.857-25.714v-146.286h-128q-56 0-100.286 3.429t-88 12.286-76 24.286-60.286 39.714-45.714 57.714-27.714 79.143-10 103.429q0 31.429 2.857 70.286 0 3.429 1.429 13.429t1.429 15.143q0 8.571-4.857 14.286t-13.429 5.714q-9.143 0-16-9.714-4-5.143-7.429-12.571t-7.714-17.143-6-13.714q-72.571-162.857-72.571-257.714 0-113.714 30.286-190.286 92.571-230.286 500-230.286h128v-146.286q0-14.857 10.857-25.714t25.714-10.857 25.714 10.857l292.571 292.571q10.857 10.857 10.857 25.714z"></path>
</symbol>
<symbol id="icon-plus" viewBox="0 0 804.5719833374023 1024">
<title>plus</title>
<path class="path1" d="M804.571 420.571v109.714q0 22.857-16 38.857t-38.857 16h-237.714v237.714q0 22.857-16 38.857t-38.857 16h-109.714q-22.857 0-38.857-16t-16-38.857v-237.714h-237.714q-22.857 0-38.857-16t-16-38.857v-109.714q0-22.857 16-38.857t38.857-16h237.714v-237.714q0-22.857 16-38.857t38.857-16h109.714q22.857 0 38.857 16t16 38.857v237.714h237.714q22.857 0 38.857 16t16 38.857z"></path>
</symbol>
<symbol id="icon-minus" viewBox="0 0 804.5709762573242 1024">
<title>minus</title>
<path class="path1" d="M804.571 420.571v109.714q0 22.857-16 38.857t-38.857 16h-694.857q-22.857 0-38.857-16t-16-38.857v-109.714q0-22.857 16-38.857t38.857-16h694.857q22.857 0 38.857 16t16 38.857z"></path>
</symbol>
<symbol id="icon-asterisk" viewBox="0 0 950.8570404052734 1024">
<title>asterisk</title>
<path class="path1" d="M846.857 600q26.286 14.857 34 44.286t-7.143 55.714l-36.571 62.857q-14.857 26.286-44.286 34t-55.714-7.143l-152-87.429v175.429q0 29.714-21.714 51.429t-51.429 21.714h-73.143q-29.714 0-51.429-21.714t-21.714-51.429v-175.429l-152 87.429q-26.286 14.857-55.714 7.143t-44.286-34l-36.571-62.857q-14.857-26.286-7.143-55.714t34-44.286l152-88-152-88q-26.286-14.857-34-44.286t7.143-55.714l36.571-62.857q14.857-26.286 44.286-34t55.714 7.143l152 87.429v-175.429q0-29.714 21.714-51.429t51.429-21.714h73.143q29.714 0 51.429 21.714t21.714 51.429v175.429l152-87.429q26.286-14.857 55.714-7.143t44.286 34l36.571 62.857q14.857 26.286 7.143 55.714t-34 44.286l-152 88z"></path>
</symbol>
<symbol id="icon-exclamation-circle" viewBox="0 0 877.7140070597306 1024">
<title>exclamation-circle</title>
<path class="path1" d="M438.857 73.143q119.429 0 220.286 58.857t159.714 159.714 58.857 220.286-58.857 220.286-159.714 159.714-220.286 58.857-220.286-58.857-159.714-159.714-58.857-220.286 58.857-220.286 159.714-159.714 220.286-58.857zM512 785.714v-108.571q0-8-5.143-13.429t-12.571-5.429h-109.714q-7.429 0-13.143 5.714t-5.714 13.143v108.571q0 7.429 5.714 13.143t13.143 5.714h109.714q7.429 0 12.571-5.429t5.143-13.429zM510.857 589.143l10.286-354.857q0-6.857-5.714-10.286-5.714-4.571-13.714-4.571h-125.714q-8 0-13.714 4.571-5.714 3.429-5.714 10.286l9.714 354.857q0 5.714 5.714 10t13.714 4.286h105.714q8 0 13.429-4.286t6-10z"></path>
</symbol>
<symbol id="icon-chevron-up" viewBox="0 0 1023.9999694824219 1024">
<title>chevron-up</title>
<path class="path1" d="M961.714 760.571l-94.857 94.286q-10.857 10.857-25.714 10.857t-25.714-10.857l-303.429-303.429-303.429 303.429q-10.857 10.857-25.714 10.857t-25.714-10.857l-94.857-94.286q-10.857-10.857-10.857-26t10.857-26l424-423.429q10.857-10.857 25.714-10.857t25.714 10.857l424 423.429q10.857 10.857 10.857 26t-10.857 26z"></path>
</symbol>
<symbol id="icon-chevron-down" viewBox="0 0 1023.9999847412109 1024">
<title>chevron-down</title>
<path class="path1" d="M961.714 461.714l-424 423.429q-10.857 10.857-25.714 10.857t-25.714-10.857l-424-423.429q-10.857-10.857-10.857-26t10.857-26l94.857-94.286q10.857-10.857 25.714-10.857t25.714 10.857l303.429 303.429 303.429-303.429q10.857-10.857 25.714-10.857t25.714 10.857l94.857 94.286q10.857 10.857 10.857 26t-10.857 26z"></path>
</symbol>
<symbol id="icon-facebook-square" viewBox="0 0 877.7150599161796 1024">
<title>facebook-square</title>
<path class="path1" d="M713.143 73.143q68 0 116.286 48.286t48.286 116.286v548.571q0 68-48.286 116.286t-116.286 48.286h-107.429v-340h113.714l17.143-132.571h-130.857v-84.571q0-32 13.429-48t52.286-16l69.714-0.571v-118.286q-36-5.143-101.714-5.143-77.714 0-124.286 45.714t-46.571 129.143v97.714h-114.286v132.571h114.286v340h-304q-68 0-116.286-48.286t-48.286-116.286v-548.571q0-68 48.286-116.286t116.286-48.286h548.571z"></path>
</symbol>
<symbol id="icon-sign-out" viewBox="0 0 896.0000330607145 1024">
<title>sign-out</title>
<path class="path1" d="M365.714 822.857q0 2.286 0.571 11.429t0.286 15.143-1.714 13.429-5.714 11.143-11.714 3.714h-182.857q-68 0-116.286-48.286t-48.286-116.286v-402.286q0-68 48.286-116.286t116.286-48.286h182.857q7.429 0 12.857 5.429t5.429 12.857q0 2.286 0.571 11.429t0.286 15.143-1.714 13.429-5.714 11.143-11.714 3.714h-182.857q-37.714 0-64.571 26.857t-26.857 64.571v402.286q0 37.714 26.857 64.571t64.571 26.857h178.286t6.571 0.571 6.571 1.714 4.571 3.143 4 5.143 1.143 7.714zM896 512q0 14.857-10.857 25.714l-310.857 310.857q-10.857 10.857-25.714 10.857t-25.714-10.857-10.857-25.714v-164.571h-256q-14.857 0-25.714-10.857t-10.857-25.714v-219.429q0-14.857 10.857-25.714t25.714-10.857h256v-164.571q0-14.857 10.857-25.714t25.714-10.857 25.714 10.857l310.857 310.857q10.857 10.857 10.857 25.714z"></path>
</symbol>
<symbol id="icon-linkedin-square" viewBox="0 0 877.7130457558669 1024">
<title>linkedin-square</title>
<path class="path1" d="M135.429 808h132v-396.571h-132v396.571zM276 289.143q-0.571-29.714-20.571-49.143t-53.143-19.429-54 19.429-20.857 49.143q0 29.143 20.286 48.857t52.857 19.714h0.571q33.714 0 54.286-19.714t20.571-48.857zM610.286 808h132v-227.429q0-88-41.714-133.143t-110.286-45.143q-77.714 0-119.429 66.857h1.143v-57.714h-132q1.714 37.714 0 396.571h132v-221.714q0-21.714 4-32 8.571-20 25.714-34t42.286-14q66.286 0 66.286 89.714v212zM877.714 237.714v548.571q0 68-48.286 116.286t-116.286 48.286h-548.571q-68 0-116.286-48.286t-48.286-116.286v-548.571q0-68 48.286-116.286t116.286-48.286h548.571q68 0 116.286 48.286t48.286 116.286z"></path>
</symbol>
<symbol id="icon-square-o" viewBox="0 0 804.5689417519607 1024">
<title>square-o</title>
<path class="path1" d="M640 146.286h-475.429q-37.714 0-64.571 26.857t-26.857 64.571v475.429q0 37.714 26.857 64.571t64.571 26.857h475.429q37.714 0 64.571-26.857t26.857-64.571v-475.429q0-37.714-26.857-64.571t-64.571-26.857zM804.571 237.714v475.429q0 68-48.286 116.286t-116.286 48.286h-475.429q-68 0-116.286-48.286t-48.286-116.286v-475.429q0-68 48.286-116.286t116.286-48.286h475.429q68 0 116.286 48.286t48.286 116.286z"></path>
</symbol>
<symbol id="icon-caret-down" viewBox="0 0 585.1440315246582 1024">
<title>caret-down</title>
<path class="path1" d="M585.143 402.286q0 14.857-10.857 25.714l-256 256q-10.857 10.857-25.714 10.857t-25.714-10.857l-256-256q-10.857-10.857-10.857-25.714t10.857-25.714 25.714-10.857h512q14.857 0 25.714 10.857t10.857 25.714z"></path>
</symbol>
<symbol id="icon-caret-up" viewBox="0 0 585.1440086364746 1024">
<title>caret-up</title>
<path class="path1" d="M585.143 694.857q0 14.857-10.857 25.714t-25.714 10.857h-512q-14.857 0-25.714-10.857t-10.857-25.714 10.857-25.714l256-256q10.857-10.857 25.714-10.857t25.714 10.857l256 256q10.857 10.857 10.857 25.714z"></path>
</symbol>
<symbol id="icon-plus-square" viewBox="0 0 877.7130457558669 1024">
<title>plus-square</title>
<path class="path1" d="M731.429 548.571v-73.143q0-14.857-10.857-25.714t-25.714-10.857h-182.857v-182.857q0-14.857-10.857-25.714t-25.714-10.857h-73.143q-14.857 0-25.714 10.857t-10.857 25.714v182.857h-182.857q-14.857 0-25.714 10.857t-10.857 25.714v73.143q0 14.857 10.857 25.714t25.714 10.857h182.857v182.857q0 14.857 10.857 25.714t25.714 10.857h73.143q14.857 0 25.714-10.857t10.857-25.714v-182.857h182.857q14.857 0 25.714-10.857t10.857-25.714zM877.714 237.714v548.571q0 68-48.286 116.286t-116.286 48.286h-548.571q-68 0-116.286-48.286t-48.286-116.286v-548.571q0-68 48.286-116.286t116.286-48.286h548.571q68 0 116.286 48.286t48.286 116.286z"></path>
</symbol>
<symbol id="icon-angle-left" viewBox="0 0 384.00101470947266 1024">
<title>angle-left</title>
<path class="path1" d="M358.286 310.857q0 7.429-5.714 13.143l-224.571 224.571 224.571 224.571q5.714 5.714 5.714 13.143t-5.714 13.143l-28.571 28.571q-5.714 5.714-13.143 5.714t-13.143-5.714l-266.286-266.286q-5.714-5.714-5.714-13.143t5.714-13.143l266.286-266.286q5.714-5.714 13.143-5.714t13.143 5.714l28.571 28.571q5.714 5.714 5.714 13.143z"></path>
</symbol>
<symbol id="icon-angle-right" viewBox="0 0 347.4289951324463 1024">
<title>angle-right</title>
<path class="path1" d="M340 548.571q0 7.429-5.714 13.143l-266.286 266.286q-5.714 5.714-13.143 5.714t-13.143-5.714l-28.571-28.571q-5.714-5.714-5.714-13.143t5.714-13.143l224.571-224.571-224.571-224.571q-5.714-5.714-5.714-13.143t5.714-13.143l28.571-28.571q5.714-5.714 13.143-5.714t13.143 5.714l266.286 266.286q5.714 5.714 5.714 13.143z"></path>
</symbol>
<symbol id="icon-angle-up" viewBox="0 0 658.2901077270508 1024">
<title>angle-up</title>
<path class="path1" d="M614.286 676.571q0 7.429-5.714 13.143l-28.571 28.571q-5.714 5.714-13.143 5.714t-13.143-5.714l-224.571-224.571-224.571 224.571q-5.714 5.714-13.143 5.714t-13.143-5.714l-28.571-28.571q-5.714-5.714-5.714-13.143t5.714-13.143l266.286-266.286q5.714-5.714 13.143-5.714t13.143 5.714l266.286 266.286q5.714 5.714 5.714 13.143z"></path>
</symbol>
<symbol id="icon-angle-down" viewBox="0 0 658.2859878540039 1024">
<title>angle-down</title>
<path class="path1" d="M614.286 420.571q0 7.429-5.714 13.143l-266.286 266.286q-5.714 5.714-13.143 5.714t-13.143-5.714l-266.286-266.286q-5.714-5.714-5.714-13.143t5.714-13.143l28.571-28.571q5.714-5.714 13.143-5.714t13.143 5.714l224.571 224.571 224.571-224.571q5.714-5.714 13.143-5.714t13.143 5.714l28.571 28.571q5.714 5.714 5.714 13.143z"></path>
</symbol>
<symbol id="icon-code" viewBox="0 0 1097.141944885254 1024">
<title>code</title>
<path class="path1" d="M352.571 799.429l-28.571 28.571q-5.714 5.714-13.143 5.714t-13.143-5.714l-266.286-266.286q-5.714-5.714-5.714-13.143t5.714-13.143l266.286-266.286q5.714-5.714 13.143-5.714t13.143 5.714l28.571 28.571q5.714 5.714 5.714 13.143t-5.714 13.143l-224.571 224.571 224.571 224.571q5.714 5.714 5.714 13.143t-5.714 13.143zM690.286 189.714l-213.143 737.714q-2.286 7.429-8.857 11.143t-13.429 1.429l-35.429-9.714q-7.429-2.286-11.143-8.857t-1.429-14l213.143-737.714q2.286-7.429 8.857-11.143t13.429-1.429l35.429 9.714q7.429 2.286 11.143 8.857t1.429 14zM1065.714 561.714l-266.286 266.286q-5.714 5.714-13.143 5.714t-13.143-5.714l-28.571-28.571q-5.714-5.714-5.714-13.143t5.714-13.143l224.571-224.571-224.571-224.571q-5.714-5.714-5.714-13.143t5.714-13.143l28.571-28.571q5.714-5.714 13.143-5.714t13.143 5.714l266.286 266.286q5.714 5.714 5.714 13.143t-5.714 13.143z"></path>
</symbol>
<symbol id="icon-paper-plane" viewBox="0 0 1024.9532529115677 1024">
<title>paper-plane</title>
<path class="path1" d="M1008 6.286q18.857 13.714 15.429 36.571l-146.286 877.714q-2.857 16.571-18.286 25.714-8 4.571-17.714 4.571-6.286 0-13.714-2.857l-258.857-105.714-138.286 168.571q-10.286 13.143-28 13.143-7.429 0-12.571-2.286-10.857-4-17.429-13.429t-6.571-20.857v-199.429l493.714-605.143-610.857 528.571-225.714-92.571q-21.143-8-22.857-31.429-1.143-22.857 18.286-33.714l950.857-548.571q8.571-5.143 18.286-5.143 11.429 0 20.571 6.286z"></path>
</symbol>
<symbol id="icon-facebook-official" viewBox="0 0 877.7150707244873 1024">
<title>facebook-official</title>
<path class="path1" d="M829.143 73.143q20 0 34.286 14.286t14.286 34.286v780.571q0 20-14.286 34.286t-34.286 14.286h-223.429v-340h113.714l17.143-132.571h-130.857v-84.571q0-32 13.429-48t52.286-16l69.714-0.571v-118.286q-36-5.143-101.714-5.143-77.714 0-124.286 45.714t-46.571 129.143v97.714h-114.286v132.571h114.286v340h-420q-20 0-34.286-14.286t-14.286-34.286v-780.571q0-20 14.286-34.286t34.286-14.286h780.571z"></path>
</symbol>
</defs>
</svg>
