<svg style="position: absolute; width: 0; height: 0;" width="0" height="0" version="1.1" xmlns="http://www.w3.org/2000/svg" xmlns:xlink="http://www.w3.org/1999/xlink">
<defs>
<symbol id="icon-search" viewBox="0 0 30 32">
<title>search</title>
<path class="path1" d="M20.571 14.857q0-3.304-2.348-5.652t-5.652-2.348-5.652 2.348-2.348 5.652 2.348 5.652 5.652 2.348 5.652-2.348 2.348-5.652zM29.714 29.714q0 0.929-0.679 1.607t-1.607 0.679q-0.964 0-1.607-0.679l-6.125-6.107q-3.196 2.214-7.125 2.214-2.554 0-4.884-0.991t-4.018-2.679-2.679-4.018-0.991-4.884 0.991-4.884 2.679-4.018 4.018-2.679 4.884-0.991 4.884 0.991 4.018 2.679 2.679 4.018 0.991 4.884q0 3.929-2.214 7.125l6.125 6.125q0.661 0.661 0.661 1.607z"></path>
</symbol>
<symbol id="icon-check" viewBox="0 0 32 32">
<title>check</title>
<path class="path1" d="M29.839 10.107q0 0.714-0.5 1.214l-15.357 15.357q-0.5 0.5-1.214 0.5t-1.214-0.5l-8.893-8.893q-0.5-0.5-0.5-1.214t0.5-1.214l2.429-2.429q0.5-0.5 1.214-0.5t1.214 0.5l5.25 5.268 11.714-11.732q0.5-0.5 1.214-0.5t1.214 0.5l2.429 2.429q0.5 0.5 0.5 1.214z"></path>
</symbol>
<symbol id="icon-close" viewBox="0 0 25 32">
<title>close</title>
<path class="path1" d="M23.179 23.607q0 0.714-0.5 1.214l-2.429 2.429q-0.5 0.5-1.214 0.5t-1.214-0.5l-5.25-5.25-5.25 5.25q-0.5 0.5-1.214 0.5t-1.214-0.5l-2.429-2.429q-0.5-0.5-0.5-1.214t0.5-1.214l5.25-5.25-5.25-5.25q-0.5-0.5-0.5-1.214t0.5-1.214l2.429-2.429q0.5-0.5 1.214-0.5t1.214 0.5l5.25 5.25 5.25-5.25q0.5-0.5 1.214-0.5t1.214 0.5l2.429 2.429q0.5 0.5 0.5 1.214t-0.5 1.214l-5.25 5.25 5.25 5.25q0.5 0.5 0.5 1.214z"></path>
</symbol>
<symbol id="icon-pencil" viewBox="0 0 27 32">
<title>pencil</title>
<path class="path1" d="M6.482 27.429l1.625-1.625-4.196-4.196-1.625 1.625v1.911h2.286v2.286h1.911zM15.821 10.857q0-0.393-0.393-0.393-0.179 0-0.304 0.125l-9.679 9.679q-0.125 0.125-0.125 0.304 0 0.393 0.393 0.393 0.179 0 0.304-0.125l9.679-9.679q0.125-0.125 0.125-0.304zM14.857 7.429l7.429 7.429-14.857 14.857h-7.429v-7.429zM27.054 9.143q0 0.946-0.661 1.607l-2.964 2.964-7.429-7.429 2.964-2.946q0.643-0.679 1.607-0.679 0.946 0 1.625 0.679l4.196 4.179q0.661 0.696 0.661 1.625z"></path>
</symbol>
<symbol id="icon-check-square-o" viewBox="0 0 30 32">
<title>check-square-o</title>
<path class="path1" d="M25.143 16.607v5.679q0 2.125-1.509 3.634t-3.634 1.509h-14.857q-2.125 0-3.634-1.509t-1.509-3.634v-14.857q0-2.125 1.509-3.634t3.634-1.509h14.857q1.125 0 2.089 0.446 0.268 0.125 0.321 0.411 0.054 0.304-0.161 0.518l-0.875 0.875q-0.179 0.179-0.411 0.179-0.054 0-0.161-0.036-0.411-0.107-0.804-0.107h-14.857q-1.179 0-2.018 0.839t-0.839 2.018v14.857q0 1.179 0.839 2.018t2.018 0.839h14.857q1.179 0 2.018-0.839t0.839-2.018v-4.536q0-0.232 0.161-0.393l1.143-1.143q0.179-0.179 0.411-0.179 0.107 0 0.214 0.054 0.357 0.143 0.357 0.518zM29.268 7.875l-14.536 14.536q-0.429 0.429-1.018 0.429t-1.018-0.429l-7.679-7.679q-0.429-0.429-0.429-1.018t0.429-1.018l1.964-1.964q0.429-0.429 1.018-0.429t1.018 0.429l4.696 4.696 11.554-11.554q0.429-0.429 1.018-0.429t1.018 0.429l1.964 1.964q0.429 0.429 0.429 1.018t-0.429 1.018z"></path>
</symbol>
<symbol id="icon-chevron-left" viewBox="0 0 24 32">
<title>chevron-left</title>
<path class="path1" d="M20.911 5.375l-9.482 9.482 9.482 9.482q0.339 0.339 0.339 0.804t-0.339 0.804l-2.964 2.964q-0.339 0.339-0.804 0.339t-0.804-0.339l-13.25-13.25q-0.339-0.339-0.339-0.804t0.339-0.804l13.25-13.25q0.339-0.339 0.804-0.339t0.804 0.339l2.964 2.964q0.339 0.339 0.339 0.804t-0.339 0.804z"></path>
</symbol>
<symbol id="icon-chevron-right" viewBox="0 0 22 32">
<title>chevron-right</title>
<path class="path1" d="M19.768 15.661l-13.25 13.25q-0.339 0.339-0.804 0.339t-0.804-0.339l-2.964-2.964q-0.339-0.339-0.339-0.804t0.339-0.804l9.482-9.482-9.482-9.482q-0.339-0.339-0.339-0.804t0.339-0.804l2.964-2.964q0.339-0.339 0.804-0.339t0.804 0.339l13.25 13.25q0.339 0.339 0.339 0.804t-0.339 0.804z"></path>
</symbol>
<symbol id="icon-plus" viewBox="0 0 25 32">
<title>plus</title>
<path class="path1" d="M25.143 13.143v3.429q0 0.714-0.5 1.214t-1.214 0.5h-7.429v7.429q0 0.714-0.5 1.214t-1.214 0.5h-3.429q-0.714 0-1.214-0.5t-0.5-1.214v-7.429h-7.429q-0.714 0-1.214-0.5t-0.5-1.214v-3.429q0-0.714 0.5-1.214t1.214-0.5h7.429v-7.429q0-0.714 0.5-1.214t1.214-0.5h3.429q0.714 0 1.214 0.5t0.5 1.214v7.429h7.429q0.714 0 1.214 0.5t0.5 1.214z"></path>
</symbol>
<symbol id="icon-minus" viewBox="0 0 25 32">
<title>minus</title>
<path class="path1" d="M25.143 13.143v3.429q0 0.714-0.5 1.214t-1.214 0.5h-21.714q-0.714 0-1.214-0.5t-0.5-1.214v-3.429q0-0.714 0.5-1.214t1.214-0.5h21.714q0.714 0 1.214 0.5t0.5 1.214z"></path>
</symbol>
<symbol id="icon-asterisk" viewBox="0 0 30 32">
<title>asterisk</title>
<path class="path1" d="M26.464 18.75q0.821 0.464 1.063 1.384t-0.223 1.741l-1.143 1.964q-0.464 0.821-1.384 1.063t-1.741-0.223l-4.75-2.732v5.482q0 0.929-0.679 1.607t-1.607 0.679h-2.286q-0.929 0-1.607-0.679t-0.679-1.607v-5.482l-4.75 2.732q-0.821 0.464-1.741 0.223t-1.384-1.063l-1.143-1.964q-0.464-0.821-0.223-1.741t1.063-1.384l4.75-2.75-4.75-2.75q-0.821-0.464-1.063-1.384t0.223-1.741l1.143-1.964q0.464-0.821 1.384-1.063t1.741 0.223l4.75 2.732v-5.482q0-0.929 0.679-1.607t1.607-0.679h2.286q0.929 0 1.607 0.679t0.679 1.607v5.482l4.75-2.732q0.821-0.464 1.741-0.223t1.384 1.063l1.143 1.964q0.464 0.821 0.223 1.741t-1.063 1.384l-4.75 2.75z"></path>
</symbol>
<symbol id="icon-exclamation-triangle" viewBox="0 0 32 32">
<title>exclamation-triangle</title>
<path class="path1" d="M18.286 24.554v-3.393q0-0.25-0.17-0.42t-0.402-0.17h-3.429q-0.232 0-0.402 0.17t-0.17 0.42v3.393q0 0.25 0.17 0.42t0.402 0.17h3.429q0.232 0 0.402-0.17t0.17-0.42zM18.25 17.875l0.321-8.196q0-0.214-0.179-0.339-0.232-0.196-0.429-0.196h-3.929q-0.196 0-0.429 0.196-0.179 0.125-0.179 0.375l0.304 8.161q0 0.179 0.179 0.295t0.429 0.116h3.304q0.25 0 0.42-0.116t0.188-0.295zM18 1.196l13.714 25.143q0.625 1.125-0.036 2.25-0.304 0.518-0.83 0.821t-1.134 0.304h-27.429q-0.607 0-1.134-0.304t-0.83-0.821q-0.661-1.125-0.036-2.25l13.714-25.143q0.304-0.554 0.839-0.875t1.161-0.321 1.161 0.321 0.839 0.875z"></path>
</symbol>
<symbol id="icon-chevron-up" viewBox="0 0 32 32">
<title>chevron-up</title>
<path class="path1" d="M30.054 23.768l-2.964 2.946q-0.339 0.339-0.804 0.339t-0.804-0.339l-9.482-9.482-9.482 9.482q-0.339 0.339-0.804 0.339t-0.804-0.339l-2.964-2.946q-0.339-0.339-0.339-0.813t0.339-0.813l13.25-13.232q0.339-0.339 0.804-0.339t0.804 0.339l13.25 13.232q0.339 0.339 0.339 0.813t-0.339 0.813z"></path>
</symbol>
<symbol id="icon-chevron-down" viewBox="0 0 32 32">
<title>chevron-down</title>
<path class="path1" d="M30.054 14.429l-13.25 13.232q-0.339 0.339-0.804 0.339t-0.804-0.339l-13.25-13.232q-0.339-0.339-0.339-0.813t0.339-0.813l2.964-2.946q0.339-0.339 0.804-0.339t0.804 0.339l9.482 9.482 9.482-9.482q0.339-0.339 0.804-0.339t0.804 0.339l2.964 2.946q0.339 0.339 0.339 0.813t-0.339 0.813z"></path>
</symbol>
<symbol id="icon-facebook" viewBox="0 0 19 32">
<title>facebook</title>
<path class="path1" d="M17.125 0.214v4.714h-2.804q-1.536 0-2.071 0.643t-0.536 1.929v3.375h5.232l-0.696 5.286h-4.536v13.554h-5.464v-13.554h-4.554v-5.286h4.554v-3.893q0-3.321 1.857-5.152t4.946-1.83q2.625 0 4.071 0.214z"></path>
</symbol>
<symbol id="icon-github" viewBox="0 0 27 32">
<title>github</title>
<path class="path1" d="M13.714 2.286q3.732 0 6.884 1.839t4.991 4.991 1.839 6.884q0 4.482-2.616 8.063t-6.759 4.955q-0.482 0.089-0.714-0.125t-0.232-0.536q0-0.054 0.009-1.366t0.009-2.402q0-1.732-0.929-2.536 1.018-0.107 1.83-0.321t1.679-0.696 1.446-1.188 0.946-1.875 0.366-2.688q0-2.125-1.411-3.679 0.661-1.625-0.143-3.643-0.5-0.161-1.446 0.196t-1.643 0.786l-0.679 0.429q-1.661-0.464-3.429-0.464t-3.429 0.464q-0.286-0.196-0.759-0.482t-1.491-0.688-1.518-0.241q-0.804 2.018-0.143 3.643-1.411 1.554-1.411 3.679 0 1.518 0.366 2.679t0.938 1.875 1.438 1.196 1.679 0.696 1.83 0.321q-0.696 0.643-0.875 1.839-0.375 0.179-0.804 0.268t-1.018 0.089-1.17-0.384-0.991-1.116q-0.339-0.571-0.866-0.929t-0.884-0.429l-0.357-0.054q-0.375 0-0.518 0.080t-0.089 0.205 0.161 0.25 0.232 0.214l0.125 0.089q0.393 0.179 0.777 0.679t0.563 0.911l0.179 0.411q0.232 0.679 0.786 1.098t1.196 0.536 1.241 0.125 0.991-0.063l0.411-0.071q0 0.679 0.009 1.58t0.009 0.973q0 0.321-0.232 0.536t-0.714 0.125q-4.143-1.375-6.759-4.955t-2.616-8.063q0-3.732 1.839-6.884t4.991-4.991 6.884-1.839zM5.196 21.982q0.054-0.125-0.125-0.214-0.179-0.054-0.232 0.036-0.054 0.125 0.125 0.214 0.161 0.107 0.232-0.036zM5.75 22.589q0.125-0.089-0.036-0.286-0.179-0.161-0.286-0.054-0.125 0.089 0.036 0.286 0.179 0.179 0.286 0.054zM6.286 23.393q0.161-0.125 0-0.339-0.143-0.232-0.304-0.107-0.161 0.089 0 0.321t0.304 0.125zM7.036 24.143q0.143-0.143-0.071-0.339-0.214-0.214-0.357-0.054-0.161 0.143 0.071 0.339 0.214 0.214 0.357 0.054zM8.054 24.589q0.054-0.196-0.232-0.286-0.268-0.071-0.339 0.125t0.232 0.268q0.268 0.107 0.339-0.107zM9.179 24.679q0-0.232-0.304-0.196-0.286 0-0.286 0.196 0 0.232 0.304 0.196 0.286 0 0.286-0.196zM10.214 24.5q-0.036-0.196-0.321-0.161-0.286 0.054-0.25 0.268t0.321 0.143 0.25-0.25z"></path>
</symbol>
<symbol id="icon-linkedin" viewBox="0 0 27 32">
<title>linkedin</title>
<path class="path1" d="M6.232 11.161v17.696h-5.893v-17.696h5.893zM6.607 5.696q0.018 1.304-0.902 2.179t-2.42 0.875h-0.036q-1.464 0-2.357-0.875t-0.893-2.179q0-1.321 0.92-2.188t2.402-0.866 2.375 0.866 0.911 2.188zM27.429 18.714v10.143h-5.875v-9.464q0-1.875-0.723-2.938t-2.259-1.063q-1.125 0-1.884 0.616t-1.134 1.527q-0.196 0.536-0.196 1.446v9.875h-5.875q0.036-7.125 0.036-11.554t-0.018-5.286l-0.018-0.857h5.875v2.571h-0.036q0.357-0.571 0.732-1t1.009-0.929 1.554-0.777 2.045-0.277q3.054 0 4.911 2.027t1.857 5.938z"></path>
</symbol>
<symbol id="icon-quote-left" viewBox="0 0 30 32">
<title>quote-left</title>
<path class="path1" d="M13.714 17.143v6.857q0 1.429-1 2.429t-2.429 1h-6.857q-1.429 0-2.429-1t-1-2.429v-12.571q0-1.857 0.723-3.545t1.955-2.92 2.92-1.955 3.545-0.723h1.143q0.464 0 0.804 0.339t0.339 0.804v2.286q0 0.464-0.339 0.804t-0.804 0.339h-1.143q-1.893 0-3.232 1.339t-1.339 3.232v0.571q0 0.714 0.5 1.214t1.214 0.5h4q1.429 0 2.429 1t1 2.429zM29.714 17.143v6.857q0 1.429-1 2.429t-2.429 1h-6.857q-1.429 0-2.429-1t-1-2.429v-12.571q0-1.857 0.723-3.545t1.955-2.92 2.92-1.955 3.545-0.723h1.143q0.464 0 0.804 0.339t0.339 0.804v2.286q0 0.464-0.339 0.804t-0.804 0.339h-1.143q-1.893 0-3.232 1.339t-1.339 3.232v0.571q0 0.714 0.5 1.214t1.214 0.5h4q1.429 0 2.429 1t1 2.429z"></path>
</symbol>
<symbol id="icon-quote-right" viewBox="0 0 30 32">
<title>quote-right</title>
<path class="path1" d="M13.714 5.714v12.571q0 1.857-0.723 3.545t-1.955 2.92-2.92 1.955-3.545 0.723h-1.143q-0.464 0-0.804-0.339t-0.339-0.804v-2.286q0-0.464 0.339-0.804t0.804-0.339h1.143q1.893 0 3.232-1.339t1.339-3.232v-0.571q0-0.714-0.5-1.214t-1.214-0.5h-4q-1.429 0-2.429-1t-1-2.429v-6.857q0-1.429 1-2.429t2.429-1h6.857q1.429 0 2.429 1t1 2.429zM29.714 5.714v12.571q0 1.857-0.723 3.545t-1.955 2.92-2.92 1.955-3.545 0.723h-1.143q-0.464 0-0.804-0.339t-0.339-0.804v-2.286q0-0.464 0.339-0.804t0.804-0.339h1.143q1.893 0 3.232-1.339t1.339-3.232v-0.571q0-0.714-0.5-1.214t-1.214-0.5h-4q-1.429 0-2.429-1t-1-2.429v-6.857q0-1.429 1-2.429t2.429-1h6.857q1.429 0 2.429 1t1 2.429z"></path>
</symbol>
</defs>
</svg>
